- 
http://www.Speed.Cd      fast  and The Hottest Private Tracker on the net

   signup is open now

Please Seed back to make the speed Faster!!!

------------------nfo--------------------------
-In.Time.2011.R5.Line.AC3.XviD-TA

[img]http://i.imgur.com/zJYZz.jpg[/img]

Plot:
In a future where people stop aging at 25, but are engineered to live only one more year, having the means to buy your way out of the situation is a shot at immortal youth. Here, Will Salas finds himself accused of murder and on the run with a hostage - a connection that becomes an important part of the way against the system.
 
http://www.imdb.com/title/tt1637688/

General
Complete name                    : In.Time.2011.R5.Line.AC3.XviD-TA.avi
Format                           : AVI
Format/Info                      : Audio Video Interleave
File size                        : 923 MiB
Duration                         : 1h 44mn
Overall bit rate                 : 1 232 Kbps
Writing library                  : VirtualDub build 32661/release
Sources                          : Video:Russian VOB'S / Audio:BHRG "NOYK" (THANKS)

Video
ID                               : 0
Format                           : MPEG-4 Visual
Format profile                   : Advanced Simple@L5
Format settings, BVOP            : 2
Format settings, QPel            : No
Format settings, GMC             : No warppoints
Format settings, Matrix          : Default (H.263)
Codec ID                         : XVID
Codec ID/Hint                    : XviD
Duration                         : 1h 44mn
Bit rate                         : 774 Kbps
Width                            : 720 pixels
Height                           : 304 pixels
Display aspect ratio             : 2.35:1
Frame rate                       : 25.000 fps
Color space                      : YUV
Chroma subsampling               : 4:2:0
Bit depth                        : 8 bits
Scan type                        : Progressive
Compression mode                 : Lossy
Bits/(Pixel*Frame)               : 0.141
Stream size                      : 580 MiB (63%)
Writing library                  : XviD 63

Audio
ID                               : 1
Format                           : AC-3
Format/Info                      : Audio Coding 3
Mode extension                   : CM (complete main)
Codec ID                         : 2000
Duration                         : 1h 44mn
Bit rate mode                    : Constant
Bit rate                         : 448 Kbps
Channel(s)                       : 6 channels
Channel positions                : Front: L C R, Side: L R, LFE
Sampling rate                    : 48.0 KHz
Bit depth                        : 16 bits
Compression mode                 : Lossy
Stream size                      : 336 MiB (36%)
Alignment                        : Split accross interleaves
Interleave, duration             : 40 ms (1.00 video frame)
Interleave, preload duration     : 500 ms

Notes: Just muxed BHRG'S FINE AC3 Line with out previouse Video. SOUNDS AWESOME! (Not Hollow and NO Buzz at all)

Greets:
All groups (past and present) P2P and Scene

Screens:
        [IMG]http://i.imgur.com/w9AiK.png[/IMG]
        [IMG]http://i.imgur.com/7qIAQ.png[/IMG]
        [IMG]http://i.imgur.com/uopl8.png[/IMG]
        [IMG]http://i.imgur.com/2Liz4.png[/IMG]
        [IMG]http://i.imgur.com/hVdlA.png[/IMG]

Enjoy,
TA-rg
[img]http://imageshack.us/m/221/9655/targ.png[/img]